<?xml version="1.0" encoding="utf-8"?>
<!-- Generator: Adobe Illustrator 22.0.1, SVG Export Plug-In . SVG Version: 6.00 Build 0)  -->
<svg version="1.1" id="레이어_1" xmlns="http://www.w3.org/2000/svg" xmlns:xlink="http://www.w3.org/1999/xlink" x="0px"
	 y="0px" viewBox="0 0 135.4 22.8" style="enable-background:new 0 0 135.4 22.8;" xml:space="preserve">
<style type="text/css">
	.st0{fill:#BC1B3D;}
	.st1{fill:#E22D43;}
	.st2{fill:#352E30;}
	.st3{fill:#87767B;}
</style>
<g>
	<g>
		<polyline class="st0" points="16.1,2.2 6.3,14 13.9,18.8 16.1,2.2 		"/>
		<polyline class="st0" points="3.4,2.4 0,5.2 4.7,5 		"/>
		<polygon class="st1" points="11.2,12.1 22,22.8 5.1,18.7 		"/>
		<polyline class="st1" points="9.7,13.9 6.1,3.8 3.4,2.4 5.1,18.7 9.7,14 19.5,2.2 17.2,18.8 		"/>
	</g>
	<g>
		<path class="st2" d="M37.3,14.9c-1.2-0.6-2.1-1.4-2.8-2.4c-0.2,0.5-0.6,1-1.2,1.6c-0.6,0.6-1.1,1-1.6,1.2l-1.2-1.2
			c0.9-0.3,1.6-0.9,2.2-1.6c0.6-0.8,0.9-1.5,0.9-2.3V9.6h-2.6V8.2h6.8v1.4h-2.5v0.7c0,0.8,0.3,1.5,0.9,2.1s1.3,1.1,2.2,1.4
			L37.3,14.9z M33.2,19.7v-4.2h1.6v2.8h6.7v1.4H33.2z M39.8,16.5V12h-2.5v-1.3h2.5V7.5h1.6v9H39.8z"/>
		<path class="st2" d="M50.7,15.2v4.9h-1.6v-4.9h-5v-1.4h11.7v1.4H50.7z M54.5,13c-2-0.4-3.5-1.2-4.6-2.4c-0.4,0.5-1,1-1.9,1.5
			c-0.9,0.5-1.8,0.8-2.6,0.9l-1-1.3c1.1-0.1,2-0.3,2.9-0.8c0.9-0.5,1.4-1,1.7-1.6h-3.6V8h9.1v1.4h-3.7c0.2,0.6,0.8,1.1,1.6,1.5
			c0.8,0.4,1.8,0.7,2.9,0.9L54.5,13z"/>
		<path class="st2" d="M57.5,10.1V8.7h3V7.3h1.6v1.4h3v1.3H57.5z M61.4,15.4c-1,0-1.8-0.2-2.4-0.7s-0.9-1-0.9-1.7
			c0-0.7,0.3-1.3,0.9-1.7c0.6-0.5,1.4-0.7,2.4-0.7s1.8,0.2,2.4,0.7c0.6,0.4,0.9,1,0.9,1.7s-0.3,1.3-0.9,1.7
			C63.2,15.2,62.4,15.4,61.4,15.4z M59.5,19.7V16h1.6v2.3H68v1.4H59.5z M61.4,12c-0.5,0-0.9,0.1-1.2,0.3s-0.4,0.4-0.4,0.8
			c0,0.3,0.1,0.6,0.4,0.8c0.3,0.2,0.7,0.3,1.2,0.3c0.5,0,0.9-0.1,1.2-0.3c0.3-0.2,0.4-0.4,0.4-0.8c0-0.3-0.1-0.6-0.4-0.8
			C62.4,12.1,62,12,61.4,12z M67.6,13v3.6H66V7.5h1.6v4.2h1.9V13H67.6z"/>
		<path class="st2" d="M77.6,17c-1.2-0.9-2.2-1.9-2.8-3.1c-0.9,1.5-1.8,2.6-2.8,3.3l-1.2-1c0.8-0.4,1.5-1.1,2.2-2c0.7-1,1-1.9,1-2.9
			V9.9h-2.7V8.6h7v1.4h-2.7v1.3c0,0.9,0.3,1.8,0.9,2.6c0.6,0.9,1.4,1.5,2.2,1.9L77.6,17z M79.8,20.1V7.5h1.6v12.6H79.8z"/>
		<path class="st2" d="M91.1,15v2.5h-1.6V15h-5.2v-1.4H96V15H91.1z M86,19.7v-3.8h1.6v2.4h6.8v1.4H86z M86,12.5V8h8.2v4.5H86z
			 M92.6,9.4h-4.9v1.8h4.9V9.4z"/>
		<path class="st2" d="M106,18.1c-2.3,0.1-5.2,0.2-8.7,0.2l-0.2-1.4l3.6,0v-1.3c-0.8-0.1-1.4-0.4-1.8-0.8c-0.4-0.4-0.6-1-0.6-1.6
			c0-0.7,0.3-1.3,0.9-1.8c0.6-0.5,1.4-0.7,2.4-0.7c1,0,1.8,0.2,2.4,0.7c0.6,0.4,0.9,1,0.9,1.8c0,0.6-0.2,1.1-0.6,1.6
			c-0.4,0.4-1,0.7-1.8,0.9v1.2c1.8,0,2.9-0.1,3.5-0.1L106,18.1z M97.7,10.3V8.9h3.1V7.4h1.6v1.5h3.1v1.4H97.7z M101.6,12.1
			c-0.5,0-0.9,0.1-1.2,0.3c-0.3,0.2-0.4,0.5-0.4,0.8c0,0.3,0.1,0.6,0.4,0.8c0.3,0.2,0.7,0.3,1.2,0.3c0.5,0,0.9-0.1,1.2-0.3
			s0.4-0.5,0.4-0.8c0-0.3-0.1-0.6-0.4-0.8C102.5,12.2,102.1,12.1,101.6,12.1z M108.1,14.3v5.9h-1.6V7.5h1.6v5.4h1.9v1.4H108.1z"/>
		<path class="st2" d="M119.4,20.1v-2.9h-6.8v-1.4h3.5v-1.1h-5v-1.4h11.7v1.4h-5v1.1h3.3v4.3H119.4z M121.6,12.7
			c-0.9-0.1-1.8-0.3-2.7-0.6c-0.9-0.4-1.6-0.7-2-1.2c-0.4,0.4-1.1,0.8-2,1.2c-0.9,0.4-1.8,0.6-2.7,0.7l-0.9-1.3c1,0,1.9-0.1,2.8-0.4
			c0.9-0.3,1.4-0.7,1.8-1.1h-3.5V8.5h3.7V7.3h1.6v1.1h3.7v1.3h-3.5c0.3,0.5,0.9,0.8,1.8,1.1c0.8,0.3,1.7,0.4,2.7,0.4L121.6,12.7z"/>
		<path class="st2" d="M129.7,16.9c-0.4-0.3-0.7-0.7-1.2-1.2c-0.4-0.5-0.7-1-0.9-1.3c-0.2,0.5-0.5,1-1,1.6s-0.9,1.1-1.3,1.4l-1.2-1
			c0.9-0.6,1.5-1.3,2-2.2s0.7-1.8,0.7-2.8V9.9h-2.2V8.6h5.7v1.4h-1.9v1.5c0,0.9,0.2,1.7,0.6,2.5c0.4,0.8,1,1.4,1.8,1.9L129.7,16.9z
			 M131.3,19.7V13h-1.7v-1.3h1.7V7.8h1.6v12H131.3z M133.8,20.1V7.5h1.6v12.6H133.8z"/>
	</g>
	<g>
		<path class="st3" d="M31.2,1V0.6h1.2V0h0.4v0.6H34V1H31.2z M32.6,3c-0.4,0-0.6-0.1-0.8-0.3s-0.3-0.4-0.3-0.6
			c0-0.2,0.1-0.5,0.3-0.6s0.5-0.3,0.9-0.3c0.4,0,0.6,0.1,0.9,0.3c0.2,0.2,0.3,0.4,0.3,0.6c0,0.2-0.1,0.5-0.3,0.6
			C33.3,2.9,33,3,32.6,3z M32.6,1.5c-0.2,0-0.4,0.1-0.6,0.2c-0.1,0.1-0.2,0.2-0.2,0.4c0,0.2,0.1,0.3,0.2,0.4s0.3,0.2,0.6,0.2
			c0.2,0,0.4-0.1,0.6-0.2s0.2-0.2,0.2-0.4c0-0.2-0.1-0.3-0.2-0.4C33.1,1.6,32.9,1.5,32.6,1.5z M32,4.7V3.3h0.4v1H35v0.3H32z
			 M34.9,2.2v1.4h-0.4V0h0.4v1.8h0.7v0.3H34.9z"/>
		<path class="st3" d="M38.9,3.6c-0.3-0.2-0.5-0.5-0.7-0.8S37.8,2.3,37.7,2c-0.1,0.2-0.2,0.5-0.4,0.8c-0.2,0.3-0.5,0.6-0.7,0.8
			l-0.3-0.3c0.4-0.3,0.7-0.6,0.9-1c0.2-0.4,0.3-0.8,0.3-1.3V0.7h-1.1V0.4h2.5v0.3h-1.1v0.4c0,0.4,0.1,0.8,0.3,1.2
			c0.2,0.4,0.5,0.7,0.9,0.9L38.9,3.6z M39.7,4.7V0h0.4v4.7H39.7z"/>
		<path class="st3" d="M41.9,1.4h2.7V0.7h-2.7V0.4h3v1.3h-2.7v0.8h2.8v0.3h-1.5v0.9h2v0.3h-4.4V3.7h2V2.9h-1.4V1.4z"/>
		<path class="st3" d="M48,2.3V2h2.1V1.1h0.4V2h2v0.3H48z M51.9,4.6c-0.3,0-0.6-0.2-1-0.4s-0.6-0.4-0.7-0.6
			c-0.1,0.2-0.3,0.4-0.7,0.6c-0.3,0.2-0.7,0.3-1,0.4l-0.2-0.3c0.4,0,0.7-0.1,1.1-0.3c0.3-0.2,0.5-0.4,0.6-0.7h-1.4V3H50V2.5h0.4V3
			h1.5v0.3h-1.4c0.1,0.2,0.3,0.4,0.6,0.6c0.3,0.2,0.7,0.3,1.1,0.4L51.9,4.6z M49.9,0.4c0,0.1,0,0.3-0.1,0.6c0,0.3-0.1,0.5-0.2,0.7
			l-0.4-0.1c0.2-0.3,0.2-0.7,0.2-1.1h-1V0.1h1.3V0.4z M51.7,0.1c0,0.6,0,1-0.1,1.5l-0.4,0c0-0.3,0.1-0.7,0.1-1.1h-1.2V0.1H51.7z"/>
		<path class="st3" d="M56.4,3.4c-0.2,0-0.5,0.1-0.8,0.1h-2.5V3.1h0.7l-0.1-2.1h0.4l0,2.1h1l0-2.1h0.4l0,2.1c0.4,0,0.6,0,0.8-0.1
			L56.4,3.4z M53.3,0.7V0.4h2.9v0.3H53.3z M56.7,4.7V0h0.4v4.7H56.7z"/>
		<path class="st3" d="M58.1,2.7V2.4h4.4v0.3H58.1z M58.9,4.6V3.2h0.4v1.1h2.6v0.3H58.9z M58.9,1.8V0.2h0.4v1.3h2.6v0.3H58.9z"/>
		<path class="st3" d="M67.5,2.7c-0.2-0.1-0.5-0.3-0.7-0.6c-0.2-0.2-0.4-0.4-0.4-0.6c-0.1,0.2-0.3,0.5-0.5,0.7
			c-0.2,0.3-0.4,0.5-0.7,0.6L65,2.5c0.3-0.2,0.6-0.4,0.9-0.8c0.2-0.3,0.4-0.7,0.4-1V0.6h-1.1V0.3h2.4v0.3h-1v0.2
			c0,0.3,0.1,0.6,0.4,0.9s0.5,0.5,0.8,0.7L67.5,2.7z M65.9,4.6V3h0.4v1.2h2.7v0.3H65.9z M68.4,3.4V1.5h-1.1V1.2h1.1V0h0.4v3.4H68.4z
			"/>
		<path class="st3" d="M72.3,2.8v1.9H72V2.8h-2V2.5h4.4v0.3H72.3z M73.9,2c-0.4-0.1-0.7-0.2-1.1-0.4c-0.4-0.2-0.6-0.4-0.7-0.6
			c-0.1,0.2-0.3,0.4-0.7,0.6c-0.3,0.2-0.7,0.4-1.1,0.4l-0.2-0.3c0.4,0,0.8-0.2,1.2-0.4c0.4-0.2,0.6-0.5,0.6-0.8h-1.5V0.2h3.4v0.3
			h-1.5c0.1,0.3,0.3,0.5,0.6,0.8c0.4,0.2,0.8,0.4,1.2,0.4L73.9,2z"/>
	</g>
</g>
</svg>
