<?xml version="1.0" encoding="utf-8"?>
<!-- Generator: Adobe Illustrator 21.0.0, SVG Export Plug-In . SVG Version: 6.00 Build 0)  -->
<svg version="1.1" id="Layer_1" xmlns="http://www.w3.org/2000/svg" xmlns:xlink="http://www.w3.org/1999/xlink" x="0px" y="0px"
	 viewBox="0 0 301 41" style="enable-background:new 0 0 301 41;" xml:space="preserve">
<style type="text/css">
	.st0{fill:#666666;}
	.st1{fill:#FFDD00;}
	.st2{fill:#FFFFFF;}
	.st3{fill:#323031;}
</style>
<g>
	<path d="M56.2,23.4c0,1.2-0.3,2.2-1.1,2.9c-0.8,0.7-1.8,1-3,1h-5.8V14.1h5.5c1.3,0,2.3,0.3,3.1,1c0.8,0.7,1.1,1.7,1.1,2.8
		c0,0.7-0.2,1.2-0.6,1.8c-0.2,0.3-0.6,0.6-0.9,0.9c0.4,0.3,0.8,0.6,1,0.9C56,21.9,56.2,22.6,56.2,23.4z M52.8,18.1
		c0-0.3-0.1-0.6-0.2-0.7c-0.2-0.2-0.6-0.3-0.9-0.3h-2v2.1h2c0.4,0,0.7-0.1,0.9-0.3C52.8,18.6,52.8,18.3,52.8,18.1z M53,23.3
		c0-0.3-0.1-0.6-0.2-0.8c-0.2-0.2-0.6-0.3-0.9-0.3h-2.2v2.2h2.2c0.4,0,0.7-0.1,0.9-0.3C52.9,23.8,53,23.6,53,23.3z"/>
	<path d="M69.4,27.3h-9.1V14.1h9.1V17h-5.7v2.2h4.9v2.9h-4.9v2.2h5.7V27.3z"/>
	<path d="M82.6,27.3h-9.1V14.1h9.1V17h-5.7v2.2h4.9v2.9h-4.9v2.2h5.7V27.3z"/>
	<path d="M95.7,23.3c0,1.3-0.4,2.3-1.5,3.1c-0.9,0.7-2.1,1.1-3.6,1.1c-1.1,0-2-0.1-2.8-0.3c-0.9-0.2-1.6-0.8-2.2-1.3l2.1-2.1
		c0.3,0.3,0.8,0.6,1.2,0.7c0.6,0.1,1.1,0.2,1.7,0.2c1.2,0,1.9-0.4,1.9-1.2c0-0.3-0.1-0.6-0.2-0.8c-0.1-0.1-0.2-0.1-0.3-0.2
		c-0.1-0.1-0.3-0.1-0.6-0.1L89.7,22c-1.2-0.2-2.1-0.6-2.7-1.2c-0.6-0.7-0.9-1.5-0.9-2.7c0-1.2,0.4-2.2,1.3-3c0.9-0.8,2-1.1,3.6-1.1
		c1,0,1.8,0.1,2.6,0.3c0.7,0.2,1.3,0.7,1.9,1.2l-2,2c-0.3-0.3-0.7-0.6-1.1-0.7s-0.8-0.1-1.2-0.1c-0.1,0-0.2,0-0.2,0
		c-0.6,0-0.9,0.1-1.2,0.3c-0.2,0.2-0.4,0.6-0.4,0.9c0,0.1,0,0.2,0.1,0.3c0,0.1,0.1,0.2,0.2,0.2c0.1,0.1,0.2,0.2,0.3,0.2
		c0.1,0.1,0.3,0.1,0.6,0.1l1.6,0.2c1.1,0.1,2,0.6,2.6,1.1c0.3,0.3,0.6,0.8,0.8,1.2C95.6,22,95.7,22.6,95.7,23.3z"/>
	<path d="M108.7,17H103v2.3h4.9v2.9H103v5.1h-3.2V14.1h9.1V17H108.7z"/>
	<path d="M121.4,27.3h-8.8V14.1h3.2v10.3h5.6V27.3z"/>
	<path d="M134.8,20.7c0,1.5,0,2.3-0.1,2.8c-0.2,1-0.6,1.8-1.2,2.3c-0.4,0.4-1,0.9-1.7,1.1c-0.6,0.2-1.2,0.3-2,0.3
		c-1.5,0-2.7-0.4-3.7-1.5c-0.7-0.7-1-1.5-1.2-2.3c-0.1-0.6-0.1-1.5-0.1-2.8c0-1.5,0-2.3,0.1-2.8c0.2-1,0.6-1.8,1.2-2.3
		c0.4-0.4,1-0.9,1.7-1.1c0.6-0.2,1.2-0.3,2.1-0.3c1.5,0,2.7,0.4,3.7,1.5c0.7,0.7,1,1.5,1.2,2.3C134.8,18.3,134.8,19.4,134.8,20.7z
		 M131.6,20.7c0-1.1,0-1.9-0.1-2.2c-0.1-0.4-0.2-0.8-0.3-1c-0.1-0.2-0.3-0.3-0.6-0.4c-0.2-0.1-0.4-0.1-0.8-0.1c-0.3,0-0.6,0-0.8,0.1
		s-0.4,0.2-0.6,0.4c-0.2,0.2-0.3,0.6-0.3,1c-0.1,0.4-0.1,1.2-0.1,2.3c0,1.1,0,1.9,0.1,2.2c0.1,0.4,0.2,0.7,0.3,0.9
		c0.1,0.1,0.3,0.3,0.6,0.4s0.4,0.2,0.8,0.2c0.6,0,1-0.2,1.3-0.6c0.2-0.2,0.3-0.6,0.3-0.9C131.6,22.6,131.6,21.8,131.6,20.7z"/>
	<path d="M154.5,14.1l-3.6,13.3h-2.7l-2.1-6.5l-2.1,6.5h-2.7l-3.7-13.3h3.4l1.7,7l2.1-7h2.3l2.1,7l1.7-7
		C150.9,14.1,154.5,14.1,154.5,14.1z"/>
</g>
<g>
	<path class="st0" d="M167.1,22.8c-0.1,0.7-0.4,1.2-0.8,1.6c-0.4,0.4-1,0.5-1.6,0.5c-0.7,0-1.3-0.3-1.8-0.8
		c-0.3-0.3-0.5-0.7-0.7-1.2c0-0.3-0.1-0.8-0.1-1.7c0-0.8,0-1.3,0.1-1.6c0.1-0.4,0.3-0.8,0.7-1.2c0.5-0.5,1-0.8,1.8-0.8
		c0.7,0,1.2,0.1,1.6,0.5s0.7,0.9,0.8,1.6h-1c-0.1-0.4-0.3-0.7-0.5-0.9s-0.5-0.4-0.9-0.4s-0.8,0.1-1,0.4c-0.1,0.1-0.3,0.4-0.4,0.7
		c0,0.3-0.1,0.8-0.1,1.4s0,1.2,0.1,1.4c0,0.3,0.1,0.5,0.4,0.7c0.3,0.3,0.7,0.4,1,0.4s0.7-0.1,0.9-0.3c0.3-0.3,0.4-0.5,0.5-0.9h1
		V22.8z"/>
	<path class="st0" d="M174.4,24.9h-1.2l-1.4-2.9h-1.3v2.9h-1v-6.9h2.6c0.7,0,1.2,0.1,1.6,0.5c0.4,0.4,0.5,0.9,0.5,1.4
		c0,0.5-0.1,0.9-0.4,1.2c-0.3,0.3-0.5,0.5-1,0.7L174.4,24.9z M173.1,20c0-0.4-0.1-0.7-0.3-0.8c-0.3-0.1-0.5-0.3-0.9-0.3h-1.6v2.1
		h1.6c0.4,0,0.7-0.1,0.8-0.3C172.9,20.6,173.1,20.3,173.1,20z"/>
	<path class="st0" d="M180.9,24.9h-4.4v-6.9h4.4v0.9h-3.4v2h2.9v0.9h-2.9v2.1h3.4V24.9z"/>
	<path class="st0" d="M188.4,24.9h-1.2l-0.5-1.4h-2.7l-0.5,1.4h-1.2l2.5-6.9h0.8L188.4,24.9z M186.4,22.5l-1-3l-1,3H186.4z"/>
	<path class="st0" d="M194.4,18.9h-2v6h-1v-6h-1.8v-0.9h4.8V18.9z"/>
	<path class="st0" d="M197.5,24.9h-1v-6.9h1V24.9z"/>
	<path class="st0" d="M204.7,17.9l-2.2,6.9h-0.8l-2.2-6.9h1l1.6,5l1.6-5C203.6,17.9,204.7,17.9,204.7,17.9z"/>
	<path class="st0" d="M210.8,24.9h-4.3v-6.9h4.4v0.9h-3.4v2h2.9v0.9h-2.9v2.1h3.4v1H210.8z"/>
	<path class="st0" d="M221.3,21.3c0,0.1,0,0.1,0,0.3c0,0.1,0,0.1,0,0.1c0,0.5,0,1-0.1,1.3c-0.1,0.5-0.3,0.8-0.7,1.2
		c-0.3,0.3-0.5,0.4-0.8,0.5c-0.3,0.1-0.7,0.1-1,0.1h-2.5v-6.9h2.5c0.8,0,1.3,0.3,1.8,0.7c0.4,0.4,0.5,0.8,0.7,1.3
		C221.3,20.2,221.3,20.7,221.3,21.3z M220.2,21.3c0-0.5,0-0.9,0-1.2c0-0.4-0.1-0.7-0.3-0.8c-0.3-0.3-0.7-0.5-1.2-0.5h-1.3v5h1.3
		c0.5,0,0.9-0.1,1.2-0.5c0.1-0.1,0.3-0.5,0.3-0.8C220.2,22.4,220.2,22,220.2,21.3z"/>
	<path class="st0" d="M228,24.9h-4.4v-6.9h4.4v0.9h-3.4v2h2.9v0.9h-2.9v2.1h3.4V24.9z"/>
	<path class="st0" d="M234.7,22.9c0,0.7-0.3,1.2-0.7,1.4c-0.4,0.4-1,0.5-1.8,0.5c-0.5,0-1-0.1-1.4-0.3c-0.4-0.1-0.8-0.4-1-0.7
		l0.7-0.7c0.3,0.3,0.5,0.4,0.8,0.5c0.3,0.1,0.7,0.1,0.9,0.1c0.4,0,0.8-0.1,1-0.3c0.3-0.1,0.4-0.4,0.4-0.8c0-0.3-0.1-0.5-0.3-0.7
		c-0.1-0.1-0.1-0.1-0.3-0.1c-0.1,0-0.3-0.1-0.5-0.1l-0.8-0.1c-0.5-0.1-1-0.3-1.3-0.5c-0.4-0.3-0.5-0.8-0.5-1.3c0-0.7,0.3-1,0.7-1.4
		s0.9-0.5,1.7-0.5c0.9,0,1.6,0.3,2.1,0.8l-0.7,0.7c-0.3-0.1-0.4-0.4-0.7-0.4c-0.3,0-0.5-0.1-0.8-0.1c-0.4,0-0.7,0.1-0.9,0.3
		c-0.3,0.3-0.4,0.5-0.4,0.8s0.1,0.5,0.3,0.7c0.1,0.1,0.4,0.3,0.8,0.3l0.8,0.1c0.3,0,0.5,0.1,0.8,0.1c0.1,0.1,0.4,0.1,0.5,0.3
		C234.4,21.7,234.7,22.3,234.7,22.9z"/>
	<path class="st0" d="M238,24.9h-1v-6.9h1V24.9z"/>
	<path class="st0" d="M245.4,22.1c0,0.4,0,0.8-0.1,1.2c-0.1,0.3-0.3,0.5-0.5,0.8s-0.5,0.5-0.9,0.7c-0.3,0.1-0.7,0.1-1,0.1
		c-0.7,0-1.3-0.3-1.8-0.8c-0.3-0.3-0.5-0.7-0.7-1.2c0-0.3-0.1-0.8-0.1-1.7c0-0.8,0-1.3,0.1-1.6c0.1-0.4,0.3-0.8,0.7-1.2
		c0.5-0.5,1-0.8,1.8-0.8c0.7,0,1.3,0.3,1.7,0.7s0.7,0.9,0.8,1.6h-0.9c-0.1-0.4-0.3-0.7-0.5-0.9c-0.3-0.3-0.5-0.3-0.9-0.3
		c-0.3,0-0.4,0-0.5,0.1c-0.1,0.1-0.4,0.1-0.4,0.3c-0.1,0.1-0.3,0.4-0.4,0.7c0,0.3-0.1,0.8-0.1,1.4s0,1.2,0.1,1.4
		c0,0.3,0.1,0.5,0.4,0.7c0.3,0.3,0.7,0.4,1,0.4c0.5,0,0.8-0.1,1.2-0.5c0.3-0.3,0.4-0.7,0.4-1v-0.4h-1.4v-0.7h2.5v1H245.4z"/>
	<path class="st0" d="M253,24.9h-0.9l-3.1-4.8v4.8h-1v-6.9h0.9l3.1,4.8v-4.8h1V24.9z"/>
	<path class="st0" d="M263.2,24.9h-4.3v-6.9h1v6h3.3V24.9z"/>
	<path class="st0" d="M270.3,24.9h-1.2l-0.5-1.4h-2.7l-0.5,1.4h-1.2l2.5-6.9h0.8L270.3,24.9z M268.4,22.5l-1-3l-1,3H268.4z"/>
	<path class="st0" d="M277,22.9c0,0.7-0.1,1-0.5,1.4c-0.4,0.4-0.9,0.5-1.6,0.5h-2.7v-6.9h2.7c0.7,0,1.2,0.1,1.6,0.5
		c0.4,0.4,0.5,0.8,0.5,1.4c0,0.4-0.1,0.7-0.3,0.9c-0.1,0.3-0.4,0.4-0.7,0.5c0.3,0.1,0.5,0.3,0.7,0.5C276.9,22.1,277,22.5,277,22.9z
		 M275.8,19.9c0-0.3-0.1-0.5-0.3-0.8c-0.3-0.1-0.5-0.3-0.8-0.3h-1.6v2h1.6c0.4,0,0.7-0.1,0.8-0.3C275.7,20.4,275.8,20.2,275.8,19.9z
		 M276,22.8c0-0.3-0.1-0.5-0.3-0.8c-0.1-0.1-0.5-0.3-0.8-0.3h-1.7v2.1h1.7c0.4,0,0.7-0.1,0.8-0.3C275.8,23.4,276,23.2,276,22.8z"/>
</g>
<g>
	<g>
		<path class="st1" d="M8.1,34.1c-1.5-0.6-3-2.3-3.3-3.9L2.5,16.6C2.2,15,3,12.9,4.3,11.8L14.9,3c1.2-1,3.5-1.4,5-0.9l13,4.8
			c1.5,0.6,3,2.3,3.3,3.9l2.3,13.6c0.3,1.6-0.5,3.7-1.8,4.8L26.1,38c-1.2,1-3.5,1.4-5,0.9L8.1,34.1z"/>
	</g>
	<g>
		<circle class="st2" cx="21.2" cy="23.3" r="9.3"/>
		<g>
			<g>
				<path class="st3" d="M21.3,21.6l-0.2,0.1c-0.7,0.3-1,1.1-0.7,1.7l1.2,2.9c0.3,0.6,0.9,0.9,1.5,0.8l0.6,0.7v-0.9
					c0.5-0.3,0.8-1,0.5-1.6l-1.2-3C22.8,21.6,22,21.3,21.3,21.6z"/>
				<ellipse transform="matrix(0.918 -0.3967 0.3967 0.918 -6.9197 9.7532)" class="st3" cx="20.1" cy="21.6" rx="0.5" ry="0.5"/>
				<ellipse transform="matrix(0.918 -0.3967 0.3967 0.918 -6.4699 10.3551)" class="st3" cx="21.8" cy="20.8" rx="0.5" ry="0.5"/>
				
					<rect x="20.6" y="23.2" transform="matrix(0.918 -0.3967 0.3967 0.918 -7.5499 10.6845)" class="st1" width="2.9" height="0.8"/>
				<rect x="21.4" y="25" transform="matrix(0.918 -0.3967 0.3967 0.918 -8.1929 11.1501)" class="st1" width="2.9" height="0.8"/>
				<path class="st3" d="M20,23.5L18.7,26l0,0c-0.2,0.4-0.2,0.8-0.1,1.2c0.3,0.7,1.1,1,1.8,0.7c0.7-0.3,1-1.1,0.7-1.8V26l0,0
					L20,23.5z"/>
				<path class="st3" d="M23.3,22.1l2.7,0.8l0,0c0.4,0.1,0.8,0.4,0.9,0.8c0.3,0.7,0,1.5-0.7,1.8s-1.5,0-1.8-0.7v-0.1l0,0L23.3,22.1z
					"/>
			</g>
			<path class="st3" d="M32,20c-0.4-1.4-1.1-2.6-2.1-3.8c-0.9-1.1-2.1-2-3.4-2.6c-1.5-0.7-2.8-1.1-4-1.2c-1.2-0.1-2.3-0.1-3.3,0.1
				c-0.3,0.1-0.5,0.1-0.8,0.2c-0.2,0.1-0.4,0-0.6-0.1L20.3,6C19.6,5.7,19,5.6,19,5.6c-1-0.1-1.7,0-1.7,0c-0.6,0.1-1.2,0.4-1.6,0.6
				l-3.4,9c-0.3,0.9-0.7,1.8-1.1,2.7c-0.4,0.9-0.7,1.8-1,2.7c-0.4,1.4-0.5,2.8-0.3,4.1c0.2,1.3,0.5,2.5,1,3.6
				c0.6,1.3,1.5,2.6,2.6,3.7c1.2,1.2,2.8,2,4.8,2.6c1.3,0.3,2.5,0.5,3.8,0.4s2.5-0.4,3.7-0.9s2.2-1.2,3.1-2.1s1.7-1.9,2.2-3
				c0.7-1.5,1.1-3,1.3-4.6C32.6,22.9,32.4,21.4,32,20z M28,25.7c-0.3,1.1-0.8,2-1.5,2.7s-1.4,1.3-2.3,1.7c-0.9,0.4-1.8,0.6-2.7,0.7
				c-1,0-1.9-0.1-2.8-0.4c-0.8-0.3-1.5-0.7-2.1-1.2s-1.1-1-1.4-1.5c-0.5-0.8-0.9-1.8-1.1-2.9c-0.2-1.1-0.1-2.3,0.4-3.5
				c0.1-0.3,0.3-0.6,0.4-0.9c0.2-0.3,0.4-0.6,0.6-0.9c0.2-0.3,0.4-0.5,0.6-0.7s0.4-0.4,0.5-0.5c0.8-0.6,1.7-1.1,2.8-1.3
				c1.1-0.2,2.2-0.2,3.4,0.1c1.4,0.4,2.5,1,3.3,1.9s1.4,1.9,1.7,2.9c0.2,0.5,0.2,1.2,0.2,1.9C28.2,24.3,28.2,25,28,25.7z"/>
		</g>
	</g>
</g>
<g>
	<circle class="st1" cx="37.2" cy="36.5" r="2.4"/>
</g>
</svg>
